<?xml version="1.0" encoding="UTF-8"?>
<svg version="1.1" xmlns="http://www.w3.org/2000/svg" width="512" height="512">
<path d="M0 0 C2.39795082 -0.00435307 4.79590026 -0.00953819 7.19384766 -0.01548767 C13.00577015 -0.0274439 18.81763882 -0.0300367 24.62957212 -0.02768741 C29.35976562 -0.02589635 34.08994518 -0.02767067 38.82013702 -0.03191185 C39.49620623 -0.03250704 40.17227544 -0.03310223 40.86883159 -0.03371545 C42.24277622 -0.03492735 43.61672084 -0.03614148 44.99066547 -0.03735783 C57.84542033 -0.04820798 70.70014889 -0.04608305 83.55490521 -0.03997298 C95.27937285 -0.03480774 107.00375731 -0.0460534 118.72820851 -0.0650712 C130.80515252 -0.08450855 142.8820573 -0.0926952 154.95901704 -0.08894795 C161.72392405 -0.08704461 168.48876034 -0.08943805 175.25365448 -0.10366249 C181.61987306 -0.11630448 187.98592608 -0.11423672 194.35214233 -0.1012516 C196.67677112 -0.0989 199.00141178 -0.10156914 201.32602692 -0.10987473 C217.85116898 -0.16461901 233.28383754 1.03282944 249.14941406 5.9621582 C249.97586426 6.21634521 250.80231445 6.47053223 251.65380859 6.73242188 C265.9592668 11.28688499 278.97779797 17.59167076 291.21191406 26.2746582 C292.77425781 27.36133789 292.77425781 27.36133789 294.36816406 28.4699707 C309.99200177 39.87846606 322.90904133 53.94142156 333.21191406 70.2746582 C333.6020166 70.88937988 333.99211914 71.50410156 334.39404297 72.13745117 C341.81121862 84.00298969 346.55371729 96.54405985 350.46191406 109.8996582 C350.70828613 110.73376221 350.9546582 111.56786621 351.20849609 112.42724609 C355.39479791 127.30785659 355.50502072 141.71911655 355.48657227 157.06274414 C355.49092533 159.46069497 355.49611046 161.8586444 355.50205994 164.2565918 C355.51401617 170.06851429 355.51660896 175.88038296 355.51425967 181.69231626 C355.51246862 186.42250976 355.51424293 191.15268932 355.51848412 195.88288116 C355.5190793 196.55895037 355.51967449 197.23501958 355.52028772 197.93157573 C355.52149961 199.30552036 355.52271375 200.67946498 355.5239301 202.05340961 C355.53478024 214.90816447 355.53265532 227.76289303 355.52654525 240.61764935 C355.52138001 252.34211699 355.53262567 264.06650145 355.55164347 275.79095265 C355.57108082 287.86789666 355.57926747 299.94480144 355.57552022 312.02176118 C355.57361687 318.78666819 355.57601032 325.55150448 355.59023476 332.31639862 C355.60287674 338.6826172 355.60080898 345.04867023 355.58782387 351.41488647 C355.58547226 353.73951526 355.5881414 356.06415592 355.59644699 358.38877106 C355.65119128 374.91391312 354.45374283 390.34658168 349.52441406 406.2121582 C349.27022705 407.0386084 349.01604004 407.86505859 348.75415039 408.71655273 C344.19968728 423.02201095 337.8949015 436.04054211 329.21191406 448.2746582 C328.48746094 449.3162207 327.76300781 450.3577832 327.01660156 451.4309082 C315.6081062 467.05474591 301.5451507 479.97178547 285.21191406 490.2746582 C284.59719238 490.66476074 283.9824707 491.05486328 283.34912109 491.45678711 C271.48358257 498.87396276 258.94251242 503.61646143 245.58691406 507.5246582 C244.75281006 507.77103027 243.91870605 508.01740234 243.05932617 508.27124023 C228.17871568 512.45754205 213.76745571 512.56776487 198.42382812 512.54931641 C196.0258773 512.55366947 193.62792786 512.5588546 191.22998047 512.56480408 C185.41805797 512.57676031 179.6061893 512.5793531 173.794256 512.57700381 C169.0640625 512.57521276 164.33388294 512.57698708 159.6036911 512.58122826 C158.58958729 512.58212104 158.58958729 512.58212104 157.55499654 512.58303186 C156.18105191 512.58424375 154.80710728 512.58545789 153.43316266 512.58667424 C140.5784078 512.59752438 127.72367924 512.59539946 114.86892292 512.58928939 C103.14445527 512.58412415 91.42007081 512.59536981 79.69561961 512.61438761 C67.6186756 512.63382496 55.54177082 512.64201161 43.46481109 512.63826436 C36.69990407 512.63636101 29.93506779 512.63875446 23.17017365 512.6529789 C16.80395507 512.66562088 10.43790204 512.66355312 4.07168579 512.65056801 C1.74705701 512.6482164 -0.57758366 512.65088555 -2.90219879 512.65919113 C-19.42734086 512.71393542 -34.86000941 511.51648697 -50.72558594 506.5871582 C-51.55203613 506.33297119 -52.37848633 506.07878418 -53.22998047 505.81689453 C-67.53543868 501.26243142 -80.55396985 494.95764564 -92.78808594 486.2746582 C-93.82964844 485.55020508 -94.87121094 484.82575195 -95.94433594 484.0793457 C-111.56817365 472.67085034 -124.4852132 458.60789484 -134.78808594 442.2746582 C-135.17818848 441.65993652 -135.56829102 441.04521484 -135.97021484 440.41186523 C-143.38739049 428.54632671 -148.12988916 416.00525656 -152.03808594 402.6496582 C-152.28445801 401.8155542 -152.53083008 400.9814502 -152.78466797 400.12207031 C-156.97096978 385.24145982 -157.0811926 370.83019985 -157.06274414 355.48657227 C-157.06709721 353.08862144 -157.07228233 350.690672 -157.07823181 348.29272461 C-157.09018804 342.48080212 -157.09278084 336.66893344 -157.09043155 330.85700014 C-157.08864049 326.12680664 -157.09041481 321.39662708 -157.09465599 316.66643524 C-157.09525118 315.99036603 -157.09584637 315.31429683 -157.09645959 314.61774068 C-157.09767149 313.24379605 -157.09888562 311.86985142 -157.10010197 310.4959068 C-157.11095212 297.64115194 -157.10882719 284.78642338 -157.10271712 271.93166706 C-157.09755188 260.20719941 -157.10879754 248.48281495 -157.12781534 236.75836375 C-157.14725269 224.68141974 -157.15543934 212.60451496 -157.15169209 200.52755523 C-157.14978875 193.76264821 -157.15218219 186.99781193 -157.16640663 180.23291779 C-157.17904862 173.86669921 -157.17698086 167.50064618 -157.16399574 161.13442993 C-157.16164414 158.80980115 -157.16431328 156.48516048 -157.17261887 154.16054535 C-157.22736315 137.63540328 -156.0299147 122.20273473 -151.10058594 106.3371582 C-150.71930542 105.09748291 -150.71930542 105.09748291 -150.33032227 103.83276367 C-145.77585916 89.52730546 -139.47107338 76.50877429 -130.78808594 64.2746582 C-130.06363281 63.2330957 -129.33917969 62.1915332 -128.59277344 61.1184082 C-117.18427808 45.49457049 -103.12132258 32.57753094 -86.78808594 22.2746582 C-86.17336426 21.88455566 -85.55864258 21.49445312 -84.92529297 21.0925293 C-73.05975445 13.67535365 -60.51868429 8.93285498 -47.16308594 5.0246582 C-46.32898193 4.77828613 -45.49487793 4.53191406 -44.63549805 4.27807617 C-29.75488755 0.09177436 -15.34362759 -0.01844846 0 0 Z M-19.78808594 81.2746582 C-23.01591989 133.47635571 -23.01591989 133.47635571 -4.890625 175.12768555 C-1.9608565 179.51281281 0.36362471 184.12458165 2.71191406 188.8371582 C3.46441405 190.2644509 4.22202055 191.68906609 4.98535156 193.1105957 C7.00046584 196.87610416 9.00007891 200.64961511 10.99560547 204.42553711 C12.73220979 207.7097233 14.47239398 210.99201546 16.21191406 214.2746582 C24.79191406 214.2746582 33.37191406 214.2746582 42.21191406 214.2746582 C42.18970795 216.07187317 42.16750183 217.86908813 42.1446228 219.72076416 C41.94117921 236.72616764 41.79105111 253.73132203 41.69379234 270.73767471 C41.6424598 279.47918177 41.57261381 288.219774 41.45751953 296.96069336 C41.35712656 304.58881711 41.29316413 312.21627775 41.27102911 319.8450439 C41.25811068 323.87628454 41.22826238 327.90563 41.15461349 331.93625641 C40.84713159 349.43638458 41.04785385 364.31815311 51.03874874 379.47866344 C52.63847322 381.92767615 53.97732516 384.49511494 55.32128906 387.09106445 C56.19844639 388.67478937 57.07860586 390.25685564 57.96191406 391.8371582 C63.41235436 401.69921051 68.61266554 411.68008919 73.75585938 421.70458984 C74.32272461 422.80665771 74.88958984 423.90872559 75.47363281 425.04418945 C75.97854248 426.03008057 76.48345215 427.01597168 77.00366211 428.03173828 C78.02345377 430.18192252 78.02345377 430.18192252 79.21191406 431.2746582 C104.29191406 431.2746582 129.37191406 431.2746582 155.21191406 431.2746582 C155.21191406 359.6646582 155.21191406 288.0546582 155.21191406 214.2746582 C176.00191406 214.2746582 196.79191406 214.2746582 218.21191406 214.2746582 C220.63759716 167.76482144 218.45810791 145.91615251 195.21191406 106.2746582 C191.25191406 98.0246582 187.29191406 89.7746582 183.21191406 81.2746582 C116.22191406 81.2746582 49.23191406 81.2746582 -19.78808594 81.2746582 Z " fill="#FF0909" transform="translate(156.7880859375,-0.274658203125)"/>
<path d="M0 0 C20.13 0 40.26 0 61 0 C61 68.64 61 137.28 61 208 C40.87 208 20.74 208 0 208 C0 139.36 0 70.72 0 0 Z " fill="#FF0A0A" transform="translate(207,144)"/>
<path d="M0 0 C61.38 0 122.76 0 186 0 C186 14.52 186 29.04 186 44 C124.62 44 63.24 44 0 44 C0 29.48 0 14.96 0 0 Z " fill="#FF0A0A" transform="translate(145,90)"/>
</svg>
